:SAMPLES-PER-SECOND 30
:FULLY-SPECIFIED
:DEGREES
373
root  -33.7792 38.0884 -5.73756 -2.43137 -84.2757 15.2873
RightUpLeg  -49.4744 -22.2887 11.9797
RightLeg  34.3777 6.25623 4.33105
RightFoot  5.24441 1.74952 -11.7009
RightToes  0.00048216 0.542163 -0.142577
Spine  60.0483 -4.91725 11.6342
Spine1  8.91043 1.45367 0.517374
HEad  -27.7143 -6.1354 -1.04458
LeftShoulder1  10.6418 -23.3797 -33.4138
LeftArm  -7.42587 -62.6194 -35.1208
LeftForeArm  12.7425 -29.5644 -5.72281
LeftHand  -0.25398 0.0180481 5.50724
RightShoulder  3.87605 13.4814 16.1044
RightArm  -7.65215 60.3143 37.4704
RightForeArm  -39.3258 31.0158 8.54954
RightHand  -6.03984 15.2376 -33.493
LeftUpLeg  -47.6836 21.4645 -14.0745
LeftLeg  20.0879 -5.70502 -2.04964
LeftFoot  5.03827 1.04594 -7.68813
LeftToes  1.06245e-005 4.65856e-005 -8.18504e-006
374
root  -34.4864 37.9059 -5.36154 -2.95239 -86.1452 17.8505
RightUpLeg  -52.2183 -19.9785 11.6001
RightLeg  37.6807 5.56673 4.32715
RightFoot  4.67945 1.52796 -10.5907
RightToes  0.00048216 0.542163 -0.142577
Spine  62.225 -4.52708 10.947
Spine1  9.01853 2.22806 -0.452793
HEad  -29.1889 -5.94767 -0.851338
LeftShoulder1  10.8528 -24.3642 -32.754
LeftArm  -15.3385 -65.8394 -29.1581
LeftForeArm  13.98 -28.69 -5.44966
LeftHand  -0.25398 0.0180481 5.50724
RightShoulder  3.53595 13.6111 13.7414
RightArm  -12.0665 64.7756 34.9916
RightForeArm  -37.762 27.0526 7.45764
RightHand  -6.03075 15.4934 -33.0603
LeftUpLeg  -50.1356 21.7006 -16.1082
LeftLeg  17.4569 -8.39127 -2.7147
LeftFoot  9.97175 0.111705 -0.951112
LeftToes  1.06245e-005 4.65856e-005 -8.18504e-006
375
root  -35.1787 37.6663 -4.95018 -12.2626 -87.5499 29.306
RightUpLeg  -55.6166 -17.8042 10.5442
RightLeg  41.7634 4.7509 4.23849
RightFoot  4.37268 1.2681 -8.94641
RightToes  0.00048216 0.542163 -0.142577
Spine  64.2021 -4.30458 10.0361
Spine1  8.43119 2.40691 -1.41767
HEad  -30.2655 -5.43783 -0.52999
LeftShoulder1  10.7521 -25.0435 -31.4524
LeftArm  -24.809 -68.5168 -21.6055
LeftForeArm  14.7861 -27.7285 -5.18385
LeftHand  -0.25398 0.0180481 5.50724
RightShoulder  3.20547 13.7897 11.3933
RightArm  -17.1551 68.9813 31.4836
RightForeArm  -36.9101 23.3746 6.67966
RightHand  -6.30132 16.3366 -33.1896
LeftUpLeg  -53.4157 20.8981 -17.68
LeftLeg  20.4748 -8.20212 -3.0299
LeftFoot  11.6215 -1.63137 7.76877
LeftToes  1.06245e-005 4.65856e-005 -8.18504e-006
376
root  -35.8748 37.4172 -4.57333 -36.2699 -88.2987 55.4077
RightUpLeg  -58.8486 -15.9725 9.21496
RightLeg  45.5452 3.9281 3.95823
RightFoot  4.00222 1.01222 -7.29576
RightToes  0.00048216 0.542163 -0.142577
Spine  66.4187 -3.9979 9.18805
Spine1  6.74758 2.2633 -2.00833
HEad  -31.1999 -5.21922 -0.0782853
LeftShoulder1  10.6154 -25.4 -30.4985
LeftArm  -33.3912 -71.4427 -12.9275
LeftForeArm  14.2505 -25.4822 -4.70469
LeftHand  -0.25398 0.0180481 5.50724
RightShoulder  2.89096 13.7604 9.39948
RightArm  -24.8823 72.1413 26.1497
RightForeArm  -35.2327 20.8231 6.65295
RightHand  -6.50383 16.9019 -33.3721
LeftUpLeg  -56.8152 20.1809 -18.7285
LeftLeg  25.0156 -6.52715 -2.98352
LeftFoot  10.2822 -2.35246 11.9284
LeftToes  1.06245e-005 4.65856e-005 -8.18504e-006
377
root  -36.552 37.2438 -4.23429 -67.1388 -88.2277 88.3385
RightUpLeg  -61.4516 -14.6003 7.86728
RightLeg  48.1944 3.19027 3.47402
RightFoot  3.45715 0.792741 -5.91227
RightToes  0.00048216 0.542163 -0.142577
Spine  68.2888 -3.74303 8.64214
Spine1  5.83655 2.36575 -2.66391
HEad  -32.3368 -5.74777 0.354318
LeftShoulder1  10.55 -26.0458 -29.4499
LeftArm  -42.4388 -74.3453 -3.05902
LeftForeArm  13.0156 -22.8129 -4.25809
LeftHand  -0.25398 0.0180481 5.50724
RightShoulder  2.58919 13.3075 7.90059
RightArm  -35.9342 74.2085 17.9394
RightForeArm  -33.0919 19.1021 6.60995
RightHand  -6.71848 17.3958 -33.6976
LeftUpLeg  -59.9559 20.0192 -20.1484
LeftLeg  28.5584 -5.49818 -2.90272
LeftFoot  8.0127 -2.10942 12.0233
LeftToes  1.06245e-005 4.65856e-005 -8.18504e-006
378
root  -37.2007 37.1459 -3.89903 -85.1668 -87.7282 108.365
RightUpLeg  -63.4159 -13.6286 6.62142
RightLeg  49.87 2.60618 2.95175
RightFoot  2.53605 0.61145 -4.87498
RightToes  0.00048216 0.542163 -0.142577
Spine  69.4201 -3.70458 8.35915
Spine1  6.19913 2.70149 -3.61326
HEad  -33.3445 -6.55502 0.591911
LeftShoulder1  10.4069 -27.1085 -27.6682
LeftArm  -54.1767 -76.1212 7.78272
LeftForeArm  13.1842 -20.7344 -4.11488
LeftHand  -0.25398 0.0180481 5.50724
RightShoulder  2.36802 12.8636 6.86216
RightArm  -50.1071 75.3424 6.64129
RightForeArm  -30.4901 17.1198 6.31292
RightHand  -7.17637 18.4167 -34.393
LeftUpLeg  -62.3348 20.0456 -22.0738
LeftLeg  30.6172 -5.17925 -2.95989
LeftFoot  6.04188 -1.93447 12.3766
LeftToes  1.06245e-005 4.65856e-005 -8.18504e-006
379
root  -37.8141 37.1048 -3.58169 -91.593 -87.2059 116.724
RightUpLeg  -64.8705 -12.8436 5.3836
RightLeg  50.831 2.1191 2.41815
RightFoot  1.39609 0.443167 -3.87924
RightToes  0.00048216 0.542163 -0.142577
Spine  71.0275 -3.6404 7.87711
Spine1  4.92036 2.81316 -4.17075
HEad  -32.9257 -6.93633 0.523104
LeftShoulder1  10.3875 -28.0145 -26.5775
LeftArm  -62.6571 -76.2483 15.3031
LeftForeArm  15.3556 -19.41 -3.9314
LeftHand  -0.25398 0.0180481 5.50724
RightShoulder  2.31021 12.8929 6.43354
RightArm  -60.1099 75.395 -2.39545
RightForeArm  -27.361 15.0729 5.89596
RightHand  -7.92053 19.9964 -35.5012
LeftUpLeg  -63.835 19.7375 -23.8735
LeftLeg  31.5733 -4.8019 -2.82946
LeftFoot  4.43866 -2.00055 14.1627
LeftToes  1.06245e-005 4.65856e-005 -8.18504e-006
